<svg xmlns="http://www.w3.org/2000/svg" xml:space="preserve" viewBox="10 54.8 979.7 890.5"><path fill="white" stroke="white" d="M522.4 64.7c-5-9.9-14.9-9.9-24.9-9.9-9.9 0-19.9 5-29.8 9.9L19.9 477.6c-9.9 5-9.9 14.9-9.9 24.9s5 19.9 9.9 24.9c9.9 5 19.9 9.9 29.8 9.9s19.9-5 29.8-9.9l417.9-383 422.8 393c9.9 5 19.9 9.9 29.8 9.9 9.9 0 19.9-5 29.8-9.9 9.9-5 9.9-14.9 9.9-24.9 0-9.9-5-19.9-9.9-24.9L522.4 64.7zm258.7 462.7c-19.9 0-39.8 19.9-39.8 39.8v298.5H248.8V567.2c0-19.9-19.9-39.8-39.8-39.8s-39.8 19.9-39.8 39.8v338.3c0 19.9 19.9 39.8 39.8 39.8h567.1c19.9 0 39.8-19.9 39.8-39.8V567.2c5-19.9-14.9-39.8-34.8-39.8z"></path></svg>